HIERARCHY
ROOT root
{
	OFFSET	0	13.1	24.9
	CHANNELS 6  Xposition Yposition Zposition Xrotation Yrotation Zrotation
	JOINT spine_1
	{
		OFFSET	0	9.99999	0
		CHANNELS 3  Xrotation Yrotation Zrotation
		JOINT spine_2
		{
			OFFSET	0	112	-10
			CHANNELS 3  Xrotation Yrotation Zrotation
			JOINT spine_3
			{
				OFFSET	0	206.5	19.3
				CHANNELS 3  Xrotation Yrotation Zrotation
				JOINT spine_4
				{
					OFFSET	0	110.4	14.6
					CHANNELS 3  Xrotation Yrotation Zrotation
					JOINT neck_1
					{
						OFFSET	0	71.8	-50.3
						CHANNELS 3  Xrotation Yrotation Zrotation
						JOINT neck_2
						{
							OFFSET	0	86.2	-25.8
							CHANNELS 3  Xrotation Yrotation Zrotation
							JOINT head_ee
							{
								OFFSET	0	179.8	-8.7
								CHANNELS 3  Xrotation Yrotation Zrotation
								End Site
								{
									OFFSET	1	0	0
								}
							}
						}
					}
					JOINT left_clavicle
					{
						OFFSET	-43.2	22.4	-70.8
						CHANNELS 3  Xrotation Yrotation Zrotation
						JOINT left_shoulder
						{
							OFFSET	-93.9	-5.79999	48.7
							CHANNELS 3  Xrotation Yrotation Zrotation
							JOINT left_elbow
							{
								OFFSET	-291.4	-30.8	15.2
								CHANNELS 3  Xrotation Yrotation Zrotation
								JOINT left_lowarm_twist
								{
									OFFSET	-110.7	-3.89999	13.6
									CHANNELS 3  Xrotation Yrotation Zrotation
									JOINT left_hand
									{
										OFFSET	-110.7	-3.89999	13.6
										CHANNELS 3  Xrotation Yrotation Zrotation
										JOINT left_ee
										{
											OFFSET	-80.8	-5.10001	12.1
											CHANNELS 3  Xrotation Yrotation Zrotation
											End Site
											{
												OFFSET	1	0	0
											}
										}
									}
								}
							}
						}
					}
					JOINT right_clavicle
					{
						OFFSET	43.2	22.4	-70.8
						CHANNELS 3  Xrotation Yrotation Zrotation
						JOINT right_shoulder
						{
							OFFSET	93.9	-5.79999	48.7
							CHANNELS 3  Xrotation Yrotation Zrotation
							JOINT right_elbow
							{
								OFFSET	291.4	-30.8	15.2
								CHANNELS 3  Xrotation Yrotation Zrotation
								JOINT right_lowarm_twist
								{
									OFFSET	110.7	-3.89999	13.6
									CHANNELS 3  Xrotation Yrotation Zrotation
									JOINT right_hand
									{
										OFFSET	110.7	-3.89999	13.6
										CHANNELS 3  Xrotation Yrotation Zrotation
										JOINT right_ee
										{
											OFFSET	80.8	-5.10001	12.1
											CHANNELS 3  Xrotation Yrotation Zrotation
											End Site
											{
												OFFSET	1	0	0
											}
										}
									}
								}
							}
						}
					}
				}
			}
		}
	}
	JOINT left_hip
	{
		OFFSET	-82.8	-127.5	0.300001
		CHANNELS 3  Xrotation Yrotation Zrotation
		JOINT left_knee
		{
			OFFSET	-28.2	-396.7	2.2
			CHANNELS 3  Xrotation Yrotation Zrotation
			JOINT left_ankle
			{
				OFFSET	-11.7	-411.3	35.4
				CHANNELS 3  Xrotation Yrotation Zrotation
				JOINT left_toes
				{
					OFFSET	0	-60	-88.6
					CHANNELS 3  Xrotation Yrotation Zrotation
					JOINT left_foot_ee
					{
						OFFSET	-22.5	-16.5	-42.2
						CHANNELS 3  Xrotation Yrotation Zrotation
						End Site
						{
							OFFSET	1	0	0
						}
					}
				}
			}
		}
	}
	JOINT right_hip
	{
		OFFSET	82.8	-127.5	0.300001
		CHANNELS 3  Xrotation Yrotation Zrotation
		JOINT right_knee
		{
			OFFSET	28.2	-396.7	2.2
			CHANNELS 3  Xrotation Yrotation Zrotation
			JOINT right_ankle
			{
				OFFSET	11.7	-411.3	35.4
				CHANNELS 3  Xrotation Yrotation Zrotation
				JOINT right_toes
				{
					OFFSET	0	-60	-88.6
					CHANNELS 3  Xrotation Yrotation Zrotation
					JOINT right_foot_ee
					{
						OFFSET	22.5	-16.5	-42.2
						CHANNELS 3  Xrotation Yrotation Zrotation
						End Site
						{
							OFFSET	1	0	0
						}
					}
				}
			}
		}
	}
}
MOTION
Frames: 11
Frame Time: 0.02
3028.95 617.256 -647.448 -10.1693 49.6279 12.8011 2.14534 -0.0645501 -0.814174 2.14571 -0.012613 -0.816631 2.14585 0.129208 -0.806444 2.14494 0.000227934 -0.816728 -2.78665 5.04438 0.501112 -2.75415 8.76409 1.23809 -0.0 0.0 -0.0 6.34382 19.3902 11.792 -7.44634 15.8006 63.1771 0.259709 -7.33112 0.0166379 33.9328 -0.0718506 -4.27139 0.413627 16.6713 9.35211 -0.0 0.0 -0.0 12.3808 23.2437 -24.541 0.978121 16.3403 -52.8711 1.98967 44.5802 -0.815687 18.0065 -0.279215 2.27377 2.13214 10.3501 -10.0393 0.0 0.0 0.0 24.6047 -39.7511 -6.85075 5.37966 -0.258613 -0.784522 4.30673 28.8541 -0.665927 -4.35643 0.0 0.0 -0.0 0.0 -0.0 -2.04407 9.586 -3.84838 -16.7489 -0.320178 -2.5412 39.6773 5.83312 4.91674 -0.74889 0.0 0.0 0.0 0.0 0.0 
3004.64 613.907 -654.115 -10.3354 49.2956 13.1895 2.24529 0.0172695 -0.901927 2.24574 0.0746241 -0.899001 2.24449 0.227918 -0.872828 2.24344 0.0872166 -0.897867 -2.55117 5.1375 0.153418 -2.51248 9.19091 0.87259 -0.0 0.0 -0.0 7.01176 19.036 12.8518 -5.68859 15.1421 62.1084 0.281243 -7.93155 0.0194976 34.9562 -0.113234 -4.3955 0.407088 17.4823 9.61141 -0.0 0.0 -0.0 11.8871 23.319 -23.4009 0.0417912 16.6151 -52.7605 1.93188 43.7365 -0.775429 17.7918 -0.280123 2.24636 2.15604 10.568 -10.1067 0.0 0.0 0.0 24.126 -40.3064 -7.31571 3.79759 -0.17491 -0.556323 3.95148 28.9874 -0.612074 -3.81693 0.0 0.0 -0.0 0.0 -0.0 -2.10907 10.3389 -3.73486 -17.4628 -0.317212 -2.6507 40.1028 7.89878 4.99063 -0.0066627 0.0 0.0 0.0 0.0 0.0 
2984.99 615.141 -656.785 -10.4273 48.4295 13.6735 2.33959 0.0938653 -0.965166 2.3401 0.155088 -0.957238 2.3374 0.315715 -0.916891 2.33626 0.166954 -0.95524 -2.36962 5.34999 -0.651832 -2.31461 10.1984 0.0448217 -0.0 0.0 -0.0 7.20441 19.8431 13.0832 -4.84068 14.7206 62.5497 0.320299 -9.01598 0.0252531 35.7537 -0.147017 -4.49169 0.515195 17.1035 10.1415 -0.0 0.0 -0.0 11.6222 23.9437 -22.736 -1.64782 16.9065 -53.7132 1.84585 42.435 -0.71666 17.0977 -0.282353 2.15774 2.18402 10.6569 -10.2589 0.0 0.0 0.0 24.311 -40.6224 -6.69818 1.83637 -0.079965 -0.270432 2.81697 29.8841 -0.440198 -3.38943 0.0 0.0 -0.0 0.0 -0.0 -1.6936 10.8696 -4.33843 -17.9803 -0.31421 -2.73004 38.8671 10.1571 4.93088 0.786602 -0.0 -0.0 0.0 0.0 0.0 
2965.11 615.548 -661.687 -11.0647 47.8936 14.509 2.76574 0.0772814 -1.02611 2.76631 0.142416 -1.01912 2.76361 0.306458 -0.982328 2.76229 0.14748 -1.01839 -2.22105 5.50046 -1.22146 -2.1503 10.9119 -0.545768 -0.0 0.0 -0.0 7.1429 19.9175 12.982 -3.74746 14.2437 62.4033 0.352729 -9.91152 0.0305854 36.3294 -0.172237 -4.56084 0.592541 16.8287 10.5223 -0.0 0.0 -0.0 11.3397 24.5559 -22.0324 -2.82999 17.1431 -54.3333 1.78678 41.5087 -0.677151 16.6014 -0.283289 2.09436 2.20538 10.6993 -10.3865 0.0 0.0 0.0 24.3906 -40.8452 -6.29223 0.262701 -0.0109068 -0.0388381 2.02799 30.4556 -0.31876 -3.08986 0.0 0.0 -0.0 0.0 -0.0 -1.39181 11.24 -4.77853 -18.6152 -0.309548 -2.82734 37.9239 11.6663 4.88238 1.33491 -0.0 -0.0 0.0 0.0 0.0 
2945.6 622.176 -664.531 -12.2133 48.4688 15.2241 2.9575 -0.138636 -0.974958 2.95803 -0.0763189 -0.981803 2.95918 0.081185 -0.981413 2.95784 -0.074822 -0.981918 -3.99515 5.35353 -1.97244 -3.93403 11.2948 -1.18457 -0.0 0.0 -0.0 7.45333 16.7078 13.7444 -2.13662 15.6873 62.1531 0.307161 -8.65187 0.0232354 37.9015 -0.244636 -4.74834 0.878251 15.0495 11.6769 -0.0 0.0 -0.0 10.5822 25.3374 -20.2401 -5.68989 16.7167 -55.3189 1.70383 40.1619 -0.622913 16.177 -0.283655 2.04015 2.27813 11.2287 -10.6495 0.0 0.0 0.0 25.5444 -41.1232 -4.29563 -0.818005 0.0328168 0.121242 3.12682 29.7673 -0.487866 -3.39846 0.0 0.0 -0.0 0.0 -0.0 0.538952 12.588 -5.92462 -22.0224 -0.266131 -3.34827 36.5427 12.2403 4.768 1.71388 -0.0 -0.0 0.0 0.0 0.0 
2914.6 620.831 -682.651 -10.2823 49.8268 15.099 3.16192 -0.440438 -1.17144 3.16261 -0.365009 -1.19709 3.17004 -0.174113 -1.23932 3.16808 -0.367643 -1.19628 -4.7692 5.04854 -2.34052 -4.71485 11.0336 -1.53753 -0.0 0.0 -0.0 7.60388 13.9452 14.2099 -0.975356 16.5903 61.9134 0.197859 -5.59802 0.00967351 38.9944 -0.297997 -4.87752 1.09768 11.6589 11.8604 -0.0 0.0 -0.0 9.96812 25.1641 -18.8798 -9.17567 15.9506 -58.5407 1.62825 38.8862 -0.574809 14.5937 -0.281474 1.83794 2.06707 10.0877 -9.70934 0.0 0.0 0.0 22.9182 -41.2726 -4.17853 -4.93106 0.171387 0.73713 9.00041 29.0123 -1.37545 -3.18457 0.0 0.0 -0.0 0.0 -0.0 2.83868 15.4375 -5.50675 -29.7682 -0.0528757 -4.51696 34.1575 8.36218 4.44771 3.50792 -0.0 -0.0 0.0 0.0 0.0 
2880.15 624.441 -688.855 -10.1064 49.9346 14.8246 3.30664 -0.44104 -1.21611 3.30739 -0.362768 -1.2417 3.315 -0.168198 -1.28262 3.31289 -0.368638 -1.23997 -5.65814 4.6622 -2.66893 -5.6123 10.5792 -1.85466 -0.0 0.0 -0.0 7.78902 12.2251 14.6538 -0.506381 17.3725 61.9877 0.173903 -4.92381 0.00747699 39.7607 -0.336877 -4.96748 1.26052 9.31252 12.0642 -0.0 0.0 -0.0 9.51544 24.9529 -17.89 -11.7234 15.5348 -59.5447 1.57664 37.9878 -0.542723 13.3618 -0.275914 1.68069 1.89369 9.28659 -8.87422 0.0 0.0 0.0 23.251 -40.9476 -1.50291 -7.8054 0.241805 1.17257 13.371 28.4195 -2.00747 -2.95816 0.0 0.0 -0.0 0.0 -0.0 3.92997 16.9636 -8.20799 -35.2403 0.192046 -5.32056 32.153 5.89868 4.20203 4.58823 -0.0 -0.0 0.0 0.0 0.0 
2861.38 628.595 -700.296 -9.62204 50.6578 14.153 3.38231 -0.343586 -1.31632 3.38323 -0.259137 -1.33551 3.38891 -0.0531414 -1.35937 3.38644 -0.267143 -1.33393 -6.50819 3.8678 -2.55522 -6.4785 9.02942 -1.81418 -0.0 0.0 -0.0 7.93945 11.1318 14.9957 -0.592019 16.8642 62.6806 0.189738 -5.36962 0.00889745 40.2768 -0.36374 -5.02777 1.36367 8.47028 12.4342 -0.0 0.0 -0.0 9.4373 24.3103 -17.7792 -13.4162 15.9582 -61.0287 1.37005 34.1621 -0.421004 11.9666 -0.265535 1.5028 1.75834 8.50689 -8.28795 0.0 0.0 0.0 22.9851 -40.7742 -0.0439944 -9.79807 0.277758 1.47621 18.183 27.7247 -2.67072 -3.07618 0.0 0.0 -0.0 0.0 -0.0 7.31476 17.7775 -10.2374 -39.2756 0.421325 -5.89662 27.2171 2.2434 3.62463 4.47894 -0.0 -0.0 0.0 0.0 0.0 
2840.99 634.046 -708.319 -9.37137 51.134 13.9363 3.41973 -0.336841 -1.3073 3.42064 -0.252979 -1.32608 3.42613 -0.0493624 -1.34909 3.42369 -0.261788 -1.32437 -7.77981 3.6686 -1.50335 -7.77548 7.9071 -0.70689 -0.0 0.0 -0.0 8.20356 8.56416 15.6436 1.73298 16.4267 61.67 0.194632 -5.50729 0.00936127 40.9867 -0.401576 -5.11031 1.4528 7.88281 12.8086 -0.0 0.0 -0.0 9.17088 23.2627 -17.2845 -14.9093 16.1572 -61.9153 1.23315 31.4181 -0.346845 10.8247 -0.253819 1.35742 1.6673 7.96022 -7.9022 0.0 0.0 0.0 21.904 -39.9443 -0.394927 -11.4826 0.299899 1.73374 22.4728 27.418 -3.23705 -3.00771 0.0 0.0 -0.0 0.0 -0.0 9.99069 18.15 -10.9475 -42.6928 0.646912 -6.37108 22.8525 -0.370102 3.09775 4.18964 -0.0 -0.0 0.0 0.0 0.0 
2827.86 633.263 -715.094 -9.98073 51.6399 14.4301 3.53856 -0.339989 -1.31392 3.53948 -0.2557 -1.33289 3.54503 -0.0538377 -1.35612 3.54256 -0.267316 -1.3306 -8.66672 3.49372 -0.812126 -8.67229 7.10539 -0.00380149 -0.0 0.0 -0.0 8.5224 6.83356 16.3463 3.99771 15.6096 60.0457 0.220967 -6.24691 0.0120579 41.469 -0.42787 -5.16612 1.54302 6.65884 12.9547 -0.0 0.0 -0.0 8.99017 22.5275 -16.9486 -15.9071 16.2903 -62.5487 1.14389 29.537 -0.301565 10.0906 -0.244757 1.26409 1.57694 7.59399 -7.44341 0.0 0.0 0.0 21.1551 -38.833 -1.01649 -12.234 0.307331 1.84879 25.8625 27.1889 -3.66355 -2.87548 0.0 0.0 -0.0 0.0 -0.0 11.7698 18.604 -10.7808 -45.2376 0.833145 -6.71538 18.3903 -2.7281 2.53711 3.80893 -0.0 -0.0 0.0 0.0 0.0 
2811.08 635.768 -722.589 -9.5147 52.1358 14.253 3.57262 -0.51256 -1.41501 3.57364 -0.42149 -1.44475 3.58383 -0.202135 -1.49133 3.58099 -0.435102 -1.44071 -9.80478 3.23837 -0.266094 -9.8157 6.27138 0.536186 -0.0 0.0 -0.0 8.81821 4.67029 17.039 6.22486 15.1605 60.1373 0.272744 -7.69478 0.0183422 42.1857 -0.467803 -5.24864 1.63718 5.8024 13.2655 -0.0 0.0 -0.0 8.77901 20.8818 -16.6179 -17.0646 16.311 -63.3098 1.07479 28.0309 -0.26829 9.1004 -0.230642 1.13839 1.51151 7.33642 -7.10805 0.0 0.0 0.0 20.3228 -37.7836 -0.518417 -12.9919 0.313298 1.96492 29.2861 27.2511 -4.08172 -2.66961 0.0 0.0 -0.0 0.0 -0.0 14.868 18.6491 -11.0444 -46.8761 0.961116 -6.93264 13.4311 -4.54837 1.88811 2.90985 -0.0 -0.0 0.0 0.0 0.0 
